<svg width="33" height="33" viewBox="0 0 33 33" fill="none" xmlns="http://www.w3.org/2000/svg">
<path d="M28.032 24.7319C28.032 26.5732 26.54 28.0652 24.6987 28.0652H7.36532C5.52465 28.0652 4.03198 26.5732 4.03198 24.7319V7.39858C4.03198 5.55725 5.52465 4.06525 7.36532 4.06525H24.6987C26.54 4.06525 28.032 5.55725 28.032 7.39858V24.7319Z" fill="#673AB7"/>
<path d="M22.052 17.1319C21.6186 16.5319 20.992 16.1186 20.1853 15.8986C20.1853 15.8986 20.8653 15.6519 21.4786 14.7319C21.8453 14.1452 22.032 13.4386 22.032 12.6119C22.032 11.1786 21.512 10.0786 20.472 9.32525C19.432 8.57191 18.2586 8.06525 16.2653 8.06525H10.032V24.0652H16.9853C18.872 24.0519 20.292 23.6452 21.2586 22.8652C22.2186 22.0719 22.6986 20.8986 22.6986 19.3319C22.6986 18.4652 22.4853 17.7319 22.052 17.1319ZM14.032 10.7319C14.032 10.7319 16.812 10.7319 16.8653 10.7319C17.8786 10.7319 18.6986 11.5519 18.6986 12.5652C18.6986 13.5786 17.8786 14.3986 16.8653 14.3986C16.812 14.3986 14.032 14.3986 14.032 14.3986V10.7319ZM17.3653 21.3986H14.032V17.3986H17.3653C18.472 17.3986 19.3653 18.2919 19.3653 19.3986C19.3653 20.5052 18.472 21.3986 17.3653 21.3986Z" fill="white"/>
</svg>
