<svg width="33" height="33" viewBox="0 0 33 33" fill="none" xmlns="http://www.w3.org/2000/svg">
<path d="M28.1928 4.06583H5.52612L7.52612 26.7325L16.8595 29.3992L26.1928 26.7325L28.1928 4.06583Z" fill="#0277BD"/>
<path d="M16.8595 6.06583V27.3325L24.3262 25.1992L25.9928 6.06583H16.8595Z" fill="#039BE5"/>
<path d="M22.9262 9.39914H16.8595V12.0658H20.1262L19.9262 14.7325H16.8595V17.3991H19.7928L19.5928 20.3991L16.8595 21.3325V24.1325L22.1262 22.3991L22.5928 14.7325L22.9262 9.39914Z" fill="white"/>
<path d="M16.8595 9.39914V12.0658H10.9262L10.7262 9.39914H16.8595ZM13.7929 14.7325L13.9262 17.3991H16.8595V14.7325H13.7929ZM14.0595 18.7325H11.3929L11.5929 22.3991L16.8595 24.1325V21.3325L14.1262 20.3991L14.0595 18.7325Z" fill="#EEEEEE"/>
</svg>
