<svg width="18" height="26" viewBox="0 0 18 26" fill="none" xmlns="http://www.w3.org/2000/svg">
<g clip-path="url(#clip0_51_192)">
<path d="M4.89773 25.0816C7.19772 25.0816 9.06438 23.2149 9.06438 20.9149V16.7483H4.89773C2.59774 16.7483 0.731079 18.615 0.731079 20.9149C0.731079 23.2149 2.59774 25.0816 4.89773 25.0816Z" fill="#0ACF83"/>
<path d="M0.731079 12.5816C0.731079 10.2816 2.59774 8.41492 4.89773 8.41492H9.06438V16.7482H4.89773C2.59774 16.7482 0.731079 14.8816 0.731079 12.5816Z" fill="#A259FF"/>
<path d="M0.731567 4.24827C0.731567 1.94827 2.59823 0.081604 4.89822 0.081604H9.06487V8.41494H4.89822C2.59823 8.41494 0.731567 6.54827 0.731567 4.24827Z" fill="#F24E1E"/>
<path d="M9.06445 0.081604H13.2311C15.5311 0.081604 17.3978 1.94827 17.3978 4.24827C17.3978 6.54827 15.5311 8.41494 13.2311 8.41494H9.06445V0.081604Z" fill="#FF7262"/>
<path d="M17.3978 12.5816C17.3978 14.8816 15.5311 16.7482 13.2311 16.7482C10.9311 16.7482 9.06445 14.8816 9.06445 12.5816C9.06445 10.2816 10.9311 8.41492 13.2311 8.41492C15.5311 8.41492 17.3978 10.2816 17.3978 12.5816Z" fill="#1ABCFE"/>
</g>
<defs>
<clipPath id="clip0_51_192">
<rect width="16.67" height="25" fill="white" transform="translate(0.729492 0.081604)"/>
</clipPath>
</defs>
</svg>
