<svg width="26" height="26" viewBox="0 0 26 26" fill="none" xmlns="http://www.w3.org/2000/svg">
<g clip-path="url(#clip0_51_204)">
<path d="M24.6303 11.4918L13.7151 0.577112C13.0869 -0.0515015 12.0673 -0.0515015 11.4383 0.577112L9.17173 2.84371L12.047 5.71901C12.7152 5.49323 13.4814 5.64469 14.014 6.17731C14.5492 6.71334 14.6996 7.4861 14.4683 8.15641L17.2393 10.9275C17.9097 10.6965 18.6833 10.846 19.2187 11.3823C19.967 12.1303 19.967 13.3427 19.2187 14.0913C18.4702 14.8399 17.2578 14.8399 16.5088 14.0913C15.9459 13.5278 15.8069 12.7011 16.0918 12.0077L13.5077 9.4235L13.5074 16.224C13.6947 16.3166 13.8658 16.439 14.014 16.5863C14.7624 17.3343 14.7624 18.5468 14.014 19.296C13.2655 20.0442 12.0525 20.0442 11.305 19.296C10.5567 18.5468 10.5567 17.3344 11.305 16.5864C11.4844 16.407 11.6975 16.2649 11.9321 16.1683V9.30446C11.6971 9.20855 11.4839 9.06638 11.305 8.88639C10.738 8.32018 10.6017 7.48825 10.8922 6.79206L8.05786 3.95739L0.573486 11.4413C-0.0554199 12.0705 -0.0554199 13.0901 0.573486 13.7188L11.4889 24.6337C12.1173 25.2624 13.1367 25.2624 13.7659 24.6337L24.6302 13.7695C25.2589 13.1406 25.2589 12.1204 24.6302 11.4918" fill="#DE4C36"/>
</g>
<defs>
<clipPath id="clip0_51_204">
<rect width="25" height="25" fill="white" transform="translate(0.101807 0.105591)"/>
</clipPath>
</defs>
</svg>
