<svg width="25" height="25" viewBox="0 0 25 25" fill="none" xmlns="http://www.w3.org/2000/svg">
<g clip-path="url(#clip0_51_200)">
<path d="M12.2878 0.105225C5.50232 0.105225 0 5.60658 0 12.393C0 17.8222 3.52083 22.4282 8.40319 24.053C9.01727 24.1667 9.24278 23.7864 9.24278 23.4619C9.24278 23.1689 9.23131 22.2008 9.22611 21.1741C5.80753 21.9174 5.08619 19.7243 5.08619 19.7243C4.52723 18.304 3.72186 17.9264 3.72186 17.9264C2.60704 17.1637 3.8059 17.1793 3.8059 17.1793C5.03983 17.2661 5.68957 18.4456 5.68957 18.4456C6.7855 20.3242 8.56413 19.7811 9.26533 19.4672C9.37558 18.6729 9.69409 18.1309 10.0455 17.8241C7.31622 17.5133 4.44705 16.4596 4.44705 11.7513C4.44705 10.4098 4.92708 9.3136 5.71318 8.4531C5.58558 8.14355 5.16502 6.89381 5.8322 5.20124C5.8322 5.20124 6.86405 4.87098 9.21223 6.46081C10.1923 6.18847 11.2435 6.05201 12.2878 6.04738C13.3321 6.05201 14.3841 6.18847 15.3661 6.46081C17.7115 4.87098 18.7419 5.20124 18.7419 5.20124C19.4107 6.89381 18.99 8.14355 18.8624 8.4531C19.6502 9.3136 20.127 10.4097 20.127 11.7513C20.127 16.4708 17.2524 17.5101 14.5162 17.8142C14.9569 18.1956 15.3496 18.9434 15.3496 20.0897C15.3496 21.7338 15.3354 23.0571 15.3354 23.4619C15.3354 23.7889 15.5565 24.172 16.1795 24.0514C21.0592 22.4247 24.5755 17.8204 24.5755 12.393C24.5755 5.60658 19.074 0.105225 12.2878 0.105225Z" fill="#161614"/>
<path d="M4.60218 17.6096C4.5752 17.6706 4.47902 17.6889 4.39161 17.647C4.30247 17.607 4.25236 17.5237 4.28127 17.4624C4.30777 17.3996 4.40395 17.382 4.4929 17.4242C4.58223 17.4642 4.63312 17.5483 4.60218 17.6096V17.6096ZM5.20662 18.1488C5.14802 18.2032 5.03344 18.178 4.95567 18.0921C4.8753 18.0064 4.86026 17.8919 4.91972 17.8367C4.98015 17.7824 5.09126 17.8078 5.17183 17.8936C5.2522 17.9802 5.26781 18.094 5.20652 18.1489L5.20662 18.1488ZM5.6213 18.8389C5.54594 18.8912 5.42278 18.8421 5.34674 18.7329C5.27147 18.6237 5.27147 18.4926 5.34838 18.4401C5.4247 18.3876 5.54594 18.4348 5.62303 18.5432C5.6982 18.6543 5.6982 18.7854 5.6212 18.839L5.6213 18.8389ZM6.32249 19.6381C6.25513 19.7123 6.11173 19.6924 6.00668 19.591C5.89933 19.492 5.86936 19.3514 5.93691 19.2771C6.00505 19.2027 6.14931 19.2236 6.25513 19.3241C6.36181 19.423 6.39438 19.5646 6.32259 19.6381H6.32249ZM7.22876 19.9079C7.19917 20.0041 7.06098 20.0478 6.92182 20.007C6.78285 19.9649 6.69188 19.8521 6.71992 19.7549C6.74883 19.658 6.88761 19.6124 7.02782 19.6562C7.1666 19.6981 7.25776 19.81 7.22885 19.9079H7.22876ZM8.26031 20.0223C8.26377 20.1237 8.14572 20.2077 7.99962 20.2096C7.85266 20.2127 7.73383 20.1307 7.73229 20.0311C7.73229 19.9287 7.84765 19.8455 7.99452 19.8431C8.14061 19.8402 8.26031 19.9216 8.26031 20.0223V20.0223ZM9.27354 19.9835C9.29108 20.0823 9.18951 20.1839 9.04447 20.2109C8.90184 20.2369 8.76982 20.1759 8.7516 20.0779C8.73387 19.9765 8.83737 19.875 8.97971 19.8487C9.12504 19.8235 9.25504 19.883 9.27354 19.9835" fill="#161614"/>
</g>
<defs>
<clipPath id="clip0_51_200">
<rect width="24.6711" height="24" fill="white" transform="translate(0 0.105225)"/>
</clipPath>
</defs>
</svg>
