<svg width="33" height="33" viewBox="0 0 33 33" fill="none" xmlns="http://www.w3.org/2000/svg">
<path d="M28.1928 4.06583H5.52612L7.52612 26.7325L16.8595 29.3992L26.1928 26.7325L28.1928 4.06583Z" fill="#E65100"/>
<path d="M16.8595 6.06583V27.3325L24.3262 25.1992L25.9928 6.06583H16.8595Z" fill="#FF6D00"/>
<path d="M16.8595 17.3991V14.7325H22.5928L22.1262 22.3991L16.8595 24.1325V21.3325L19.5928 20.3991L19.7928 17.3991H16.8595ZM22.7928 12.0658L22.9928 9.39914H16.8595V12.0658H22.7928Z" fill="white"/>
<path d="M16.8595 21.3325V24.1325L11.5928 22.3991L11.3262 18.7325H13.9928L14.1262 20.3991L16.8595 21.3325ZM13.5928 12.0658H16.8595V9.39914H10.7928L11.2595 17.3991H16.8595V14.7325H13.7928L13.5928 12.0658Z" fill="#EEEEEE"/>
</svg>
