<svg width="33" height="33" viewBox="0 0 33 33" fill="none" xmlns="http://www.w3.org/2000/svg">
<path d="M4.8595 28.7325V4.73248H28.8595V28.7325H4.8595Z" fill="#FFD600"/>
<path d="M20.5515 22.6971C21.0129 23.4465 21.5142 24.1645 22.5762 24.1645C23.4682 24.1645 23.9362 23.7211 23.9362 23.1078C23.9362 22.3738 23.4522 22.1131 22.4709 21.6858L21.9329 21.4565C20.3802 20.7978 19.3475 19.9725 19.3475 18.2291C19.3475 16.6225 20.5775 15.3998 22.4995 15.3998C23.8682 15.3998 24.8515 15.8738 25.5609 17.1151L23.8849 18.1865C23.5162 17.5278 23.1175 17.2685 22.4995 17.2685C21.8689 17.2685 21.4695 17.6665 21.4695 18.1865C21.4695 18.8291 21.8695 19.0891 22.7929 19.4871L23.3309 19.7165C25.1609 20.4958 26.1929 21.2918 26.1929 23.0811C26.1929 25.0091 24.6702 26.0658 22.6262 26.0658C20.6269 26.0658 19.4915 25.0625 18.8595 23.8205L20.5515 22.6971ZM12.8275 22.7518C13.1649 23.3558 13.6775 23.8205 14.4149 23.8205C15.1202 23.8205 15.5262 23.5418 15.5262 22.4585V15.3991H17.7482V22.7998C17.7482 25.0445 16.4462 26.0658 14.5449 26.0658C12.8269 26.0658 11.5869 24.9018 11.0815 23.8205L12.8275 22.7518Z" fill="#000001"/>
</svg>
