<svg width="24" height="25" viewBox="0 0 24 25" fill="none" xmlns="http://www.w3.org/2000/svg">
<g clip-path="url(#clip0_51_172)">
<path d="M23.742 6.15098C23.7506 6.18278 23.755 6.21557 23.7551 6.24851V11.3687C23.7551 11.4344 23.7378 11.499 23.7048 11.5559C23.6719 11.6127 23.6245 11.6599 23.5675 11.6926L19.2701 14.1668V19.0709C19.2701 19.2044 19.1991 19.3276 19.0834 19.3948L10.1128 24.5589C10.0923 24.5705 10.0699 24.578 10.0475 24.5859C10.0391 24.5887 10.0311 24.5939 10.0223 24.5962C9.95956 24.6127 9.89365 24.6127 9.83094 24.5962C9.82067 24.5934 9.81134 24.5878 9.80154 24.5841C9.78101 24.5766 9.75954 24.5701 9.73994 24.5589L0.771215 19.3948C0.71424 19.3621 0.666898 19.3149 0.633963 19.258C0.601028 19.2012 0.583663 19.1367 0.583618 19.0709V3.71035C0.583618 3.67675 0.588285 3.64408 0.596685 3.61235C0.599485 3.60161 0.606018 3.59181 0.609751 3.58108C0.616751 3.56148 0.623284 3.54141 0.633551 3.52322C0.640551 3.51108 0.650817 3.50128 0.659217 3.49008C0.66995 3.47515 0.67975 3.45975 0.69235 3.44668C0.703083 3.43595 0.717083 3.42802 0.729216 3.41868C0.742749 3.40748 0.754882 3.39535 0.770282 3.38648H0.770749L5.25534 0.80445C5.31213 0.771775 5.37649 0.754578 5.44201 0.754578C5.50752 0.754578 5.57189 0.771775 5.62867 0.80445L10.1133 3.38648H10.1142C10.1291 3.39582 10.1417 3.40748 10.1553 3.41822C10.1674 3.42755 10.1809 3.43595 10.1917 3.44622C10.2047 3.45975 10.2141 3.47515 10.2253 3.49008C10.2332 3.50128 10.2439 3.51108 10.2505 3.52322C10.2612 3.54188 10.2673 3.56148 10.2747 3.58108C10.2785 3.59181 10.285 3.60161 10.2878 3.61281C10.2964 3.64462 10.3008 3.6774 10.3009 3.71035V13.3044L14.0379 11.1526V6.24805C14.0379 6.21538 14.0425 6.18225 14.0509 6.15098C14.0542 6.13978 14.0603 6.12998 14.064 6.11925C14.0715 6.09965 14.078 6.07958 14.0883 6.06138C14.0953 6.04925 14.1055 6.03945 14.1135 6.02825C14.1247 6.01332 14.134 5.99792 14.1471 5.98485C14.1578 5.97412 14.1713 5.96618 14.1835 5.95685C14.1975 5.94565 14.2096 5.93352 14.2245 5.92465H14.225L18.7101 3.34262C18.7668 3.3099 18.8312 3.29267 18.8967 3.29267C18.9623 3.29267 19.0266 3.3099 19.0834 3.34262L23.568 5.92465C23.5839 5.93398 23.596 5.94565 23.61 5.95638C23.6217 5.96572 23.6352 5.97412 23.6459 5.98438C23.659 5.99792 23.6683 6.01332 23.6795 6.02825C23.6879 6.03945 23.6982 6.04925 23.7047 6.06138C23.7155 6.07958 23.7215 6.09965 23.729 6.11925C23.7332 6.12998 23.7392 6.13978 23.742 6.15098V6.15098ZM23.0075 11.1526V6.89484L21.4382 7.79829L19.2701 9.04661V13.3044L23.008 11.1526H23.0075ZM18.5229 18.8549V14.5943L16.3903 15.8123L10.3004 19.2879V23.5887L18.5229 18.8549ZM1.33121 4.35667V18.8549L9.55281 23.5882V19.2884L5.25768 16.8576L5.25628 16.8566L5.25441 16.8557C5.23994 16.8473 5.22781 16.8352 5.21428 16.8249C5.20261 16.8156 5.18908 16.8081 5.17881 16.7978L5.17788 16.7964C5.16575 16.7848 5.15735 16.7703 5.14708 16.7572C5.13775 16.7446 5.12655 16.7339 5.11908 16.7208L5.11861 16.7194C5.11021 16.7054 5.10508 16.6886 5.09901 16.6728C5.09295 16.6588 5.08501 16.6457 5.08128 16.6308V16.6303C5.07661 16.6126 5.07568 16.5939 5.07381 16.5757C5.07195 16.5617 5.06821 16.5477 5.06821 16.5337V6.50844L2.90058 5.25966L1.33121 4.35714V4.35667ZM5.44247 1.55951L1.70593 3.71035L5.44154 5.86118L9.17762 3.70988L5.44154 1.55951H5.44247ZM7.38564 14.9825L9.55328 13.7347V4.35667L7.9839 5.26013L5.8158 6.50844V15.8865L7.38564 14.9825ZM18.8967 4.09767L15.1607 6.24851L18.8967 8.39935L22.6323 6.24805L18.8967 4.09767ZM18.5229 9.04661L16.3548 7.79829L14.7855 6.89484V11.1526L16.9531 12.4005L18.5229 13.3044V9.04661ZM9.92614 18.6416L15.4061 15.5131L18.1454 13.9498L14.4121 11.8004L10.1137 14.2751L6.19613 16.5304L9.92614 18.6416Z" fill="#FF2D20"/>
</g>
<defs>
<clipPath id="clip0_51_172">
<rect width="23.2128" height="24" fill="white" transform="translate(0.583618 0.675171)"/>
</clipPath>
</defs>
</svg>
