<svg width="43" height="23" viewBox="0 0 43 23" fill="none" xmlns="http://www.w3.org/2000/svg">
<g clip-path="url(#clip0_51_168)">
<path d="M21.5338 21.9989C32.9044 21.9989 42.122 17.2006 42.122 11.2817C42.122 5.3628 32.9044 0.564575 21.5338 0.564575C10.1632 0.564575 0.945557 5.3628 0.945557 11.2817C0.945557 17.2006 10.1632 21.9989 21.5338 21.9989Z" fill="#8993BE"/>
<path fill-rule="evenodd" clip-rule="evenodd" d="M6.72717 17.6274L8.98352 6.20511H14.2009C16.457 6.34617 17.5852 7.47418 17.5852 9.44855C17.5852 12.8329 14.906 14.8071 12.5086 14.666H9.97062L9.40654 17.6274H6.72717ZM10.5345 12.5509L11.2397 8.32039H13.0729C14.06 8.32039 14.765 8.74341 14.765 9.58945C14.624 11.9868 13.4959 12.4099 12.2268 12.5509H10.5347H10.5345ZM17.061 14.666L19.3172 3.24396H21.9966L21.4325 6.20511H23.9706C26.227 6.34617 27.073 7.47418 26.7911 8.88447L25.8039 14.666H22.9837L23.9708 9.44855C24.1117 8.74341 24.1117 8.32039 23.1247 8.32039H21.0095L19.7404 14.666H17.061V14.666ZM25.6233 17.6274L27.8795 6.20511H33.097C35.3534 6.34617 36.4815 7.47418 36.4815 9.44855C36.4815 12.8329 33.8022 14.8071 31.4049 14.666H28.8666L28.3025 17.6274H25.6233V17.6274ZM29.4305 12.5509L30.1357 8.32039H31.969C32.9561 8.32039 33.6611 8.74341 33.6611 9.58945C33.5202 11.9868 32.392 12.4099 31.1229 12.5509H29.4307H29.4305Z" fill="#232531"/>
</g>
<defs>
<clipPath id="clip0_51_168">
<rect width="41.1765" height="21.56" fill="white" transform="translate(0.945557 0.564575)"/>
</clipPath>
</defs>
</svg>
