<svg width="26" height="26" viewBox="0 0 26 26" fill="none" xmlns="http://www.w3.org/2000/svg">
<g clip-path="url(#clip0_51_187)">
<path d="M24.693 25.0828H1.63299C1.10152 25.0828 0.665161 24.6464 0.665161 24.1149V1.06054C0.665161 0.529073 1.10152 0.0927124 1.63299 0.0927124H24.693C25.2245 0.0927124 25.6609 0.529073 25.6609 1.06054V24.1205C25.6553 24.652 25.2245 25.0828 24.693 25.0828V25.0828Z" fill="#4D4D4E"/>
<path d="M6.42676 7.63948L19.5064 3.48848C19.5064 3.48848 20.435 3.00177 20.2113 3.90246L20.2448 7.90241C20.2448 7.90241 20.4071 8.48982 19.6015 8.63527L14.2868 10.2968L6.42676 7.63948Z" fill="#F89820"/>
<path d="M6.42675 7.63947C6.42675 7.63947 5.91206 7.76254 6.06311 8.64086L6.03514 12.4954C6.03514 12.4954 5.99039 12.9821 6.91345 13.1779L19.8756 17.3513C19.8756 17.3513 20.3119 17.5247 20.2616 16.9876L20.2672 12.6912C20.2672 12.6912 20.3903 12.2492 19.5847 11.9583L14.2868 10.2968L6.42675 7.63947Z" fill="#F89820"/>
<path d="M12.1385 14.8562L6.6225 16.5401C6.6225 16.5401 5.95677 16.5625 6.03509 17.81C6.11341 19.0576 6.0295 21.5695 6.0295 21.5695C6.0295 21.5695 6.08544 22.0338 6.7232 21.7653L19.8028 17.5919C19.8028 17.5919 20.2671 17.4744 19.8755 17.3457C19.4839 17.2226 12.1385 14.8562 12.1385 14.8562V14.8562Z" fill="url(#paint0_linear_51_187)"/>
</g>
<defs>
<linearGradient id="paint0_linear_51_187" x1="6.79469" y1="19.2835" x2="20.0255" y2="14.7058" gradientUnits="userSpaceOnUse">
<stop offset="0.233" stop-color="#F89822"/>
<stop offset="1" stop-color="#C27818"/>
</linearGradient>
<clipPath id="clip0_51_187">
<rect width="25" height="24.99" fill="white" transform="translate(0.662354 0.0927124)"/>
</clipPath>
</defs>
</svg>
