<svg width="27" height="27" viewBox="0 0 27 27" fill="none" xmlns="http://www.w3.org/2000/svg">
<g clip-path="url(#clip0_51_182)">
<path d="M0.771669 9.6777C0.771669 9.6777 0.156196 9.23404 0.894764 8.64165L2.61552 7.10296C2.61552 7.10296 3.1079 6.58494 3.62849 7.03628L19.5077 19.0586V24.8235C19.5077 24.8235 19.5 25.7288 18.3383 25.6287L0.771669 9.6777Z" fill="#2489CA"/>
<path d="M4.86468 13.3937L0.771761 17.1148C0.771761 17.1148 0.351186 17.4276 0.771761 17.9867L2.67204 19.7151C2.67204 19.7151 3.12339 20.1998 3.79016 19.6485L8.12926 16.3583L4.86468 13.3937Z" fill="#1070B3"/>
<path d="M12.0504 13.4245L19.5566 7.69283L19.5079 1.95863C19.5079 1.95863 19.1873 0.707154 18.1179 1.35853L8.12927 10.4497L12.0504 13.4245Z" fill="#0877B9"/>
<path d="M18.3385 25.6365C18.7744 26.0827 19.3027 25.9366 19.3027 25.9366L25.1523 23.0541C25.9011 22.5438 25.7959 21.9103 25.7959 21.9103V4.69752C25.7959 3.941 25.0215 3.67942 25.0215 3.67942L19.9515 1.23547C18.8437 0.550751 18.1179 1.35856 18.1179 1.35856C18.1179 1.35856 19.0514 0.686669 19.5079 1.95865V24.7184C19.5079 24.8749 19.4745 25.0287 19.4078 25.1672C19.2745 25.4365 18.9847 25.6878 18.2897 25.5827L18.3385 25.6365Z" fill="#3C99D4"/>
</g>
<defs>
<clipPath id="clip0_51_182">
<rect width="26" height="25.532" fill="white" transform="translate(0.0286865 0.55072)"/>
</clipPath>
</defs>
</svg>
